<?xml version="1.0" encoding="iso-8859-1"?>
<!-- Generator: Adobe Illustrator 18.0.0, SVG Export Plug-In . SVG Version: 6.00 Build 0)  -->
<!DOCTYPE svg PUBLIC "-//W3C//DTD SVG 1.1//EN" "http://www.w3.org/Graphics/SVG/1.1/DTD/svg11.dtd">
<svg xmlns="http://www.w3.org/2000/svg" xmlns:xlink="http://www.w3.org/1999/xlink" version="1.1" id="Capa_1" x="0px" y="0px" viewBox="0 0 275.031 275.031" style="enable-background:new 0 0 275.031 275.031;" xml:space="preserve" width="512px" height="512px">
<g>
	<path d="M107.122,162.377v32.376c0,2.761,2.239,5,5,5h18.117c2.761,0,5-2.239,5-5s-2.239-5-5-5h-13.117v-27.376   c0-2.761-2.239-5-5-5S107.122,159.616,107.122,162.377z" fill="#FFFFFF"/>
	<path d="M53.147,186.791c0,33.585,27.323,60.908,60.908,60.908s60.908-27.323,60.908-60.908c0-33.584-27.323-60.908-60.908-60.908   S53.147,153.206,53.147,186.791z M164.964,186.791c0,28.071-22.837,50.908-50.908,50.908s-50.908-22.837-50.908-50.908   s22.837-50.908,50.908-50.908S164.964,158.72,164.964,186.791z" fill="#FFFFFF"/>
	<path d="M249.215,89.373c0-8.923-7.259-16.183-16.183-16.183c-8.923,0-16.182,7.259-16.182,16.183   c0,7.094,4.596,13.123,10.961,15.302c-1.202,7.367-7.594,13.014-15.295,13.014c-8.555,0-15.516-6.96-15.516-15.611V44.137   C197.001,19.8,177.202,0,152.865,0c-22.763,0-41.553,17.322-43.889,39.476c-16.489,2.319-29.219,16.513-29.219,33.631   c0,11.431,5.682,21.555,14.363,27.715c-39.087,9.061-68.305,44.167-68.305,85.969c0,48.656,39.584,88.24,88.24,88.24   s88.24-39.584,88.24-88.24c0-41.98-29.469-77.203-68.806-86.079c8.594-6.17,14.208-16.241,14.208-27.604   c0-16.923-12.439-30.992-28.654-33.551C121.29,22.892,135.596,10,152.865,10c18.823,0,34.137,15.313,34.137,34.137v58.036   c0,14.07,11.446,25.516,25.516,25.516c13.18,0,24.058-10.046,25.38-22.883C244.45,102.735,249.215,96.601,249.215,89.373z    M117.064,96.84c-1.091,0.153-2.204,0.237-3.336,0.237c-1.133,0-2.245-0.085-3.336-0.237V77.93h6.672V96.84z M187.296,186.791   c0,40.385-32.855,73.24-73.24,73.24s-73.24-32.855-73.24-73.24s32.855-73.24,73.24-73.24S187.296,146.406,187.296,186.791z    M137.698,73.107c0,8.285-4.226,15.601-10.634,19.908V77.93c2.761,0,5-2.239,5-5s-2.239-5-5-5h-5h-16.672h-5c-2.761,0-5,2.239-5,5   s2.239,5,5,5v15.084c-6.408-4.307-10.634-11.623-10.634-19.908c0-13.217,10.753-23.97,23.971-23.97S137.698,59.89,137.698,73.107z    M233.033,95.555c-3.409,0-6.182-2.773-6.182-6.182c0-3.409,2.773-6.183,6.182-6.183c3.409,0,6.183,2.773,6.183,6.183   C239.215,92.782,236.442,95.555,233.033,95.555z" fill="#FFFFFF"/>
</g>
<g>
</g>
<g>
</g>
<g>
</g>
<g>
</g>
<g>
</g>
<g>
</g>
<g>
</g>
<g>
</g>
<g>
</g>
<g>
</g>
<g>
</g>
<g>
</g>
<g>
</g>
<g>
</g>
<g>
</g>
</svg>
